<svg xmlns="http://www.w3.org/2000/svg" width="480" height="467.58" viewBox="0 0 480 467.58"><title>logo_saite</title><path d="M11.33,158.24s-11,27.87-10.18,86.53l.06,4.08S-1.67,344.71,93,422.68c26.68,22,79.31,47.25,110.65,44,22-2.29,3.76-35.15-3.61-52.6-1.76-4.16-17.48-38.07-19.16-42.26-5.65-14-14.91-30.05-36.2-14.22-37.1,27.58-57.35,8.51-67.59-6.45s-37.72-44.6-44.24-113.71C24.78,151.86,52.13,116.73,39.44,115,27.81,113.36,11.33,158.24,11.33,158.24Z"/><path d="M177.24,7.61c-3.24,0-48.93,7.8-61.4,34.64-10,21.58-5.33,70.63-.06,98.31,7.31,38.36,5.21,26.58,21.32,77.31,15.24,48,37.34,78.21,53.1,119.11,15.34,39.81,30.87,88.38,49.05,119C253,479,324.54,462,324.54,447S291.46,291.11,262.32,304.5s6.09,59.13-9.66,63.07-19.42-44-46.09-91.39c-29.51-52.48-45-84.3-52.14-141s-7.88-70.8-3.94-73.6,10.24-7.52,18.11,8.23S200.42,74.07,196.48,52,197.07,7.61,177.24,7.61Z"/><path d="M236,4.4l-3.3-.91s-19.28-3.4-21.86,7.24c-3.78,15.61,3.25,46.65,11.88,74.22s18.31,77,8.86,78.58-25.77-42.9-30.72-59.07C195.67,87.4,170.83,78.22,175.74,132s19.37,81.74,32.16,101.42,20.25,48.72,36.31,54.23,34-1.7,34-50.17C278.16,183.89,278.17,92.84,236,4.4Z"/><path d="M288.6,2.92h0A102.07,102.07,0,0,0,278.24.57c-7.56-1.29-16.5-1.44-12.77,21.2,5.37,32.59,20.44,61,26.74,116.13s6.51,117.48,5.87,134c-.88,22.59,8.61,67,18.09,60.41,15.14-10.55,16.24-137.31,20.18-138.89s15.79,59.6,9.89,94C339.42,327.09,326,382.33,329,396.34c3.81,17.84,8.42,72.19,34,37,22.69-31.25,39.46-169,37.54-233C398.56,134.53,380,35.74,342,17.64c-21.09-10,4.57,50.94,8.38,66,5.8,23,22.59,84.65,11.3,80-9.47-3.87-33.81-129.55-68.93-159.19C291.59,3.56,290,3.31,288.6,2.92Z"/><path d="M138.88,271.87c-33.31-61-43.09-138.3-42-165.16.85-21.94-5.12-51.66-13.08-48-5.88,2.68-10.5,9.39-13.84,14.92-3.56,5.89-6.47,11.53-10,25.34-5.92,23.21-10.11,93.82-10.11,123s23.81,118.68,54.75,125.9c45.51,10.62,8.66-35.63,1.13-48.12-11.63-19.31-17.74-55.44-2.53-31.88,18.91,29.29,25.2,69.25,60.15,63.12C179,328.17,150.82,293.72,138.88,271.87Zm-55.08-72c.33,1.75,1.86,9.2,2.18,10.56,1.73,7.31,3.74,11.65-.78,16-3,2.83-6.14,0-7.32-3.67-3.66-11.35-7-29.49-.86-48.44C79.4,167,82.38,192.44,83.8,199.91Z"/><path d="M462.35,131.24c-20-49-56.47-70.73-56.47-70.73-9.92-3.09-9,18.37-3.42,42.92,14.56,64,19.45,160.11,2.76,228-7.13,29-9.22,56.35-4.54,63.66,6.6,10.3,15.87-3.75,24.92-34,15.54-52.05,14.09-108.45,22.87-114.69,14.07-10-11.17,105.48,12,67.82C485.21,274,484.23,184.74,462.35,131.24ZM446,196c-3.47,2.16-2.66-12-3.28-19.75a37.35,37.35,0,0,0-.62-5.89c-1.11-5.45-1.59-13.19-2.19-20.31-.78-9.45,4.72-.41,8.34,12C454.56,183.72,450.44,193.16,446,196Z"/></svg>