<svg xmlns="http://www.w3.org/2000/svg" width="30.93mm" height="30.55mm" viewBox="0 0 87.66 86.6"><title>menuzinho</title><path d="M28.56,43.27l-26,15.06L0,53.94,18.45,43.27,0,32.59l2.54-4.38ZM5,62.71,38.6,43.34,5,23.9l2.54-4.46L41.29,39V0h5.09V38.88L80,19.44l2.54,4.38L48.78,43.34,82.57,62.78,80,67.16,46.38,47.79V86.6H41.29V47.72L7.56,67.16ZM36.2,30.05,10.18,15l2.55-4.39L31.11,21.28V0H36.2Zm0,26.44v30H31.11V65.32L12.73,75.93l-2.55-4.38ZM51.47,30.05V0h5.09V21.28L74.94,10.6,77.48,15Zm0,26.44,26,15.06-2.54,4.38L56.56,65.32V86.53H51.47ZM59,43.27,85.12,28.21l2.54,4.38L69.21,43.27,87.66,53.94l-2.54,4.39Z" fill="#16261b"/></svg>