<svg id="Layer_1" data-name="Layer 1" xmlns="http://www.w3.org/2000/svg" xmlns:xlink="http://www.w3.org/1999/xlink" width="900" height="900" viewBox="0 0 900 900"><defs><pattern id="New_Pattern" data-name="New Pattern" width="908" height="908" patternUnits="userSpaceOnUse" viewBox="0 0 908 908"><g id="_Grupo_" data-name="&lt;Grupo&gt;"><rect id="_Caminho_" data-name="&lt;Caminho&gt;" width="908" height="908" fill="none"/><g id="_Grupo_2" data-name="&lt;Grupo&gt;"><path id="_Caminho_2" data-name="&lt;Caminho&gt;" d="M913.76,1236.64l-6.24-7.81c1.16-.94,28.78-23,43.21-31.28,36-20.68,78.66-19.17,119.92-17.72,40.72,1.44,82.82,2.93,120.27-16.06,71.15-36.06,67.54-85,65.14-117.46-.1-1.41-.2-2.79-.29-4.13-.91-13.19-11.17-18.24-27.83-25.4-14.12-6.07-30.13-12.94-40.08-29-21.42-34.5,29.18-87.77,31.35-90l7.2,6.93c-.47.5-47.39,49.89-30.05,77.82,8.29,13.36,22.14,19.31,35.53,25.06,16,6.86,32.48,13.95,33.85,33.9.09,1.32.19,2.69.3,4.09,2.43,32.92,6.49,88-70.59,127.11-39.76,20.16-83.17,18.62-125.16,17.14-41.68-1.47-81-2.87-114.58,16.39C941.94,1214.13,914,1236.41,913.76,1236.64Z" fill="#ff880056"/></g><g id="_Grupo_3" data-name="&lt;Grupo&gt;"><path id="_Caminho_3" data-name="&lt;Caminho&gt;" d="M5.76,1236.64l-6.24-7.81c1.16-.94,28.78-23,43.21-31.28,36-20.68,78.66-19.17,119.92-17.72,40.72,1.44,82.82,2.93,120.27-16.06,71.15-36.06,67.54-85,65.14-117.46-.1-1.41-.2-2.79-.29-4.13-.91-13.19-11.17-18.24-27.83-25.4-14.12-6.07-30.13-12.94-40.08-29-21.42-34.5,29.18-87.77,31.35-90l7.2,6.93c-.47.5-47.39,49.89-30.05,77.82,8.29,13.36,22.14,19.31,35.53,25.06,16,6.86,32.48,13.95,33.85,33.9.09,1.32.19,2.69.3,4.09,2.43,32.92,6.49,88-70.59,127.11-39.76,20.16-83.17,18.62-125.16,17.14-41.68-1.47-81-2.87-114.58,16.39C33.94,1214.13,6,1236.41,5.76,1236.64Z" fill="#ff880056"/></g><g id="_Grupo_4" data-name="&lt;Grupo&gt;"><path id="_Caminho_4" data-name="&lt;Caminho&gt;" d="M913.76,328.64l-6.24-7.81c1.16-.94,28.78-23,43.21-31.28,36-20.68,78.66-19.17,119.92-17.72,40.72,1.44,82.82,2.93,120.27-16.06,71.15-36.06,67.54-85,65.14-117.46-.1-1.41-.2-2.79-.29-4.13-.91-13.19-11.17-18.24-27.83-25.4-14.12-6.07-30.13-12.94-40.08-29-21.42-34.5,29.18-87.77,31.35-90l7.2,6.93c-.47.5-47.39,49.89-30.05,77.82,8.29,13.36,22.14,19.31,35.53,25.06,16,6.86,32.48,14,33.85,33.9.09,1.32.19,2.69.3,4.09,2.43,32.92,6.49,88-70.59,127.11-39.76,20.16-83.17,18.62-125.16,17.14-41.68-1.47-81-2.87-114.58,16.39C941.94,306.13,914,328.41,913.76,328.64Z" fill="#ff880056"/><path id="_Caminho_5" data-name="&lt;Caminho&gt;" d="M909.26,662.51l-1.65-9.86c1-.18,25.53-4.7,24.51-28.55-.32-7.48-4.77-12.71-8.45-15.77-6.58-5.48-14.92-7.77-19.42-7.15l-1.38-9.9c8.06-1.12,19.24,2.73,27.2,9.37,7.5,6.25,11.66,14.21,12,23C943.23,649.88,921.11,660.54,909.26,662.51Z" fill="#ff880056"/></g><g id="_Grupo_5" data-name="&lt;Grupo&gt;"><path id="_Caminho_6" data-name="&lt;Caminho&gt;" d="M87.33,918.22l-7.57-6.54c11.14-12.9-14.72-38.89-33.6-57.87-6.75-6.78-12.57-12.63-16.54-17.6-16.79-21-16.14-37.14-15.15-61.58l.07-1.71c.58-14.33,7.52-38.19,21.72-59.19,12.46-18.41,35-41.08,71.76-44.52,27.43-2.57,46.09,3.4,55.48,17.75,10.2,15.58,7.77,39.49-6.66,65.61-15.53,28.08-37.24,78.62-8.28,101.59,15.06,12,35.78,16.49,54.07,11.85,22-5.59,40.08-23.53,52.16-51.86,13.16-30.85,16.51-51.43,10.86-66.71-5-13.55-16.47-22.42-34.75-35.42-46.87-33.34-20.13-71.56-5.77-92.09,3.5-5,7.11-10.17,7.6-12.5A190.18,190.18,0,0,0,235.35,587c2.81-29.93,6.31-67.19,51.45-91,4.41-2.33,7.95-4,11.08-5.53,15.61-7.5,16.22-7.79,44.19-54.67,30.72-51.5,61.48-48.75,88.61-46.32,4.44.4,8.64.77,12.8.91l7,.27c22.4,1,24.75,1.05,47-25.46,13.08-15.6,8.44-31.3,3.07-49.49-4.3-14.56-8.75-29.62-4-45.65,5.83-19.84,13.56-23.29,24.69-26.3,7.05-1.9,15.05-4.06,25.35-15.6s9.37-15.55,7.13-25.29c-2.58-11.24-6.48-28.24,4.82-64.79C579.57,69.77,642.61,3.13,645.28.32l7.24,6.9C651.88,7.89,588.43,75,568,141c-10.5,34-7.1,48.79-4.62,59.6,2.76,12,3.68,19.52-9.42,34.2-12.28,13.74-22.64,16.54-30.2,18.59-8.4,2.26-13,3.51-17.71,19.46-3.88,13.2,0,26.22,4,40,5.67,19.19,11.53,39-5,58.74-24.71,29.45-29.63,30.11-55.07,29-2.13-.09-4.42-.19-6.9-.27-4.44-.15-9-.56-13.35-.95-26.55-2.37-51.63-4.62-79.13,41.48-28.41,47.62-30.22,49.81-48.46,58.56-3,1.46-6.48,3.12-10.73,5.36C251.11,526.15,248,559,245.3,588a196.88,196.88,0,0,1-2.78,21.52c-.91,4.34-4.38,9.31-9.19,16.18-18.67,26.68-32.45,52.73,3.37,78.21,16.4,11.67,31.89,22.69,38.33,40.1,6.61,17.86,3.2,40.72-11,74.11-16.87,39.55-41.34,53.17-58.9,57.62A72.83,72.83,0,0,1,142.35,862c-25.75-20.42-23.71-61,5.73-114.27,12.4-22.43,15-43.1,7-55.29C148,681.59,132.07,677,109,679.17c-32.85,3.08-53.16,23.54-64.42,40.17-13,19.26-19.51,41.48-20,54L24.47,775c-1,23.77-1.5,36.86,13,54.94,3.63,4.54,9.55,10.49,15.82,16.78,10.66,10.73,22.76,22.88,30.66,34.8C94,896.79,95.18,909.13,87.33,918.22Z" fill="#ff880056"/><path id="_Caminho_composto_" data-name="&lt;Caminho composto&gt;" d="M469.18,218.23c13.26-5.73,24.34-20.25,32.92-43.14,17.64-47,28.66-68.45,37.6-84.84,6.27-11.49,5.57-39-9.77-54.33-11.17-11.14-33.27-19.59-75.1,3.39l-.31.17-.29.22c-1.75,1.32-42.75,32.7-36.36,66.78,2.64,14.06,8.51,22.57,13.24,29.41,6.22,9,10,14.46,4,28.62-8.53,20.19-13.67,32.38-9.86,41.71,1.94,4.75,5.92,8.25,12.53,11a45.66,45.66,0,0,0,17.61,3.84A34.39,34.39,0,0,0,469.18,218.23ZM522.87,43c12.34,12.31,12.23,34.81,8,42.46-9.1,16.69-20.31,38.49-38.18,86.12-7.59,20.25-16.86,32.86-27.52,37.47-7,3-14.68,2.67-23.58-1.05-5.25-2.19-6.58-4.22-7.13-5.56-2.24-5.49,2.81-17.46,9.81-34,8.11-19.22,1.75-28.43-5-38.19-4.4-6.38-9.39-13.6-11.63-25.57-5-26.74,28.91-54.11,32.29-56.75C488.63,32.23,510.37,30.54,522.87,43Z" fill="#ff880056"/><path id="_Caminho_7" data-name="&lt;Caminho&gt;" d="M5.76,328.64l-6.24-7.81c1.16-.94,28.78-23,43.21-31.28,36-20.68,78.66-19.17,119.92-17.72,40.72,1.44,82.82,2.93,120.27-16.06,71.15-36.06,67.54-85,65.14-117.46-.1-1.41-.2-2.79-.29-4.13-.91-13.19-11.17-18.24-27.83-25.4-14.12-6.07-30.13-12.94-40.08-29C258.44,45.3,309-8,311.21-10.22l7.2,6.93c-.47.5-47.39,49.89-30.05,77.82,8.29,13.36,22.14,19.31,35.53,25.06,16,6.86,32.48,14,33.85,33.9.09,1.32.19,2.69.3,4.09,2.43,32.92,6.49,88-70.59,127.11-39.76,20.16-83.17,18.62-125.16,17.14-41.68-1.47-81-2.87-114.58,16.39C33.94,306.13,6,328.41,5.76,328.64Z" fill="#ff880056"/><path id="_Caminho_8" data-name="&lt;Caminho&gt;" d="M4.71,199.48.58,190.37c.1,0,11.06-5.18,42-26.78,25.52-17.82,41.35-27,58.1-36.68,7.78-4.51,15.83-9.16,25-14.78,17-10.46,20.47-24.29,10.33-41.11-6.42-10.64-23.34-14.11-38.26-17.17-10.93-2.24-20.38-4.18-26-8.79a15.07,15.07,0,0,1-5.48-10.44C65,21.46,78.23,4.9,79.75,3.06l7.72,6.35c-4.71,5.75-12,17.41-11.27,24.24a5,5,0,0,0,1.86,3.67c3.72,3,12.44,4.84,21.68,6.73,16.93,3.47,36.13,7.41,44.81,21.81,13,21.5,8,41.47-13.65,54.78-9.25,5.69-17.35,10.39-25.19,14.92-16.56,9.59-32.21,18.65-57.39,36.23C16.3,194.14,5.17,199.27,4.71,199.48Z" fill="#ff880056"/><path id="_Caminho_composto_2" data-name="&lt;Caminho composto&gt;" d="M256.4,222c15.09-12.61,21.79-30.26,19.37-51a85,85,0,0,0-7.9-26.88c-4.32-13.91-13.18-19.16-19.89-21.12-12-3.49-24.8,1.28-31.64,7.19-4,3.43-7.48,9-11.53,15.42-8.29,13.17-17.69,28.1-33.13,29-5.21.3-10.44.34-15.5.37-20.8.13-40.45.26-48.94,19.25-2.73,6.11-1.33,10.61.34,13.3,6.37,10.33,26.5,12,50.19,13.07,3.88.17,7.23.32,9.75.54,3.58.32,8.84,2.42,14.94,4.86,10.37,4.15,23.7,9.49,38.16,9.48C232.14,235.38,244.37,232,256.4,222Zm-11.22-89.44c6.4,1.87,10.86,6.86,13.26,14.84l.14.48.23.44c.88,1.65,21.19,40.92-8.82,66-22.55,18.84-45.43,9.69-63.82,2.34-6.83-2.73-12.73-5.09-17.77-5.54-2.74-.24-6.19-.39-10.19-.57-12.34-.54-38-1.67-42.12-8.33-.24-.38-.87-1.4.28-4,5.58-12.48,18.79-13.19,39.88-13.33,5.18,0,10.54-.07,16-.38,20.58-1.19,32.39-19.95,41-33.65,3.48-5.52,6.76-10.73,9.6-13.18a26.57,26.57,0,0,1,16.54-5.95A20.92,20.92,0,0,1,245.18,132.51Z" fill="#ff880056"/><path id="_Caminho_composto_3" data-name="&lt;Caminho composto&gt;" d="M428,295.52c.91-.84,2-1.77,3.09-2.78,10.14-9,25.46-22.6,21.42-34.86-2.65-8-12.12-12.53-29.8-14.14-2.2-.29-25.74-3.05-38.79,8.85-6,5.49-8.86,13-8.42,22.42.87,18.57,10.73,25.36,16.53,27.75a29.34,29.34,0,0,0,11.18,2.12A38.45,38.45,0,0,0,428,295.52Zm-6.54-41.86.24,0c18.07,1.63,20.88,6,21.31,7.32,2,6-12.41,18.79-18.56,24.25l-3.21,2.88c-5.73,5.26-17.07,8.81-25.39,5.37-6.41-2.64-9.89-9-10.36-19-.29-6.36,1.39-11.12,5.15-14.56,6.19-5.66,16.56-6.73,23.55-6.73A61.51,61.51,0,0,1,421.5,253.66Z" fill="#ff880056"/><path id="_Caminho_composto_4" data-name="&lt;Caminho composto&gt;" d="M154.94,573.58c23.26-24.81,18-42.57,12.79-51-7.9-12.72-24-18-34.14-14.91-16.09,4.87-18.6,4.16-22.44-6.3,0-.07-2.23-7.24,24.81-33A428.15,428.15,0,0,1,187.58,427c15.49-10.32,27.57-10.56,32.67-6.22,2.8,2.38,3.31,6.15,1.4,10.34-4,8.79-7.78,19.65-1.53,25.67s18.23,3.76,40.35-7.3c25.15-12.57,35.69-31.55,40.1-45.25,5.82-18.09,3.67-34.56-.28-43.94-8.12-19.3-46.78-21.11-58.44-21.2-.8,0-1.62,0-2.42-.07h0C155.69,334.74,125,358.14,78,399.86c-21.37,19-34.35,42.11-39.7,70.75C33.75,495.06,35.48,519.45,37,541q.21,3,.41,5.87C38.79,567.11,53,584,75.51,592a76.94,76.94,0,0,0,25.83,4.49A73.26,73.26,0,0,0,154.94,573.58Zm84-224.58c1,0,1.9.07,2.85.08,21.46.17,45,4.9,49.31,15.08,7.13,16.95,4.16,56.75-35.09,76.37-24.54,12.27-28.9,9.07-28.93,9s-1.72-2.43,3.69-14.33c3.78-8.3,2.24-16.77-4-22.09-7.74-6.58-23.54-8.59-44.69,5.51a431,431,0,0,0-53,42.55c-28.78,27.38-29.37,38-27.31,43.65,7,19.22,18.32,17.4,34.73,12.43,6.28-1.91,17.59,2.31,22.75,10.61,6.37,10.27,2.26,24.06-11.59,38.84-21,22.34-50.14,22.5-68.78,15.86s-30.38-20.27-31.49-36.44q-.2-2.91-.41-5.9c-2.95-41.7-6.62-93.6,37.68-132.92,42.59-37.81,69.61-58.84,135.8-58.84C226.29,348.5,232.43,348.67,238.92,349Z" fill="#ff880056"/><path id="_Caminho_9" data-name="&lt;Caminho&gt;" d="M652.38,916,645.3,909l1.44-1.44c11.77-11.8,17.68-17.73,19.55-24.3s.22-15.78-3.13-33.86c-.74-4-1.55-8.35-2.42-13.22-7-39,12-44.79,38.2-52.85,4.94-1.53,10.06-3.1,15.57-5,14.41-5,23.52-22.08,22.17-41.44-1.16-16.66-11-36.19-35.15-41-34.22-6.85-51.12,9.78-74.51,32.81-8.67,8.53-18.5,18.21-30.14,27.39-26,20.47-40.08,12.34-55,3.74-11.41-6.56-24.35-14-46.61-11-41.84,5.58-48.59,26.67-57.14,53.37-1.65,5.16-3.36,10.5-5.39,15.91-10.78,28.73-29.22,31.73-48.74,34.9-5.36.87-10.89,1.77-16.62,3.21-9.73,2.44-35,31.58-48.62,49.37l-7.94-6.08c6.24-8.15,38.19-49,54.12-53,6.14-1.55,11.89-2.48,17.46-3.38,19.41-3.16,32.24-5.24,41-28.54,1.94-5.18,3.61-10.4,5.23-15.45,8.86-27.68,17.23-53.82,65.34-60.23,25.63-3.42,40.76,5.28,52.92,12.27,14.48,8.33,23.22,13.35,43.86-2.92,11.21-8.84,20.42-17.9,29.32-26.67,23.64-23.27,44.06-43.38,83.48-35.49,29.67,5.94,41.75,29.79,43.17,50.13,1.66,23.85-10.2,45.06-28.84,51.58-5.7,2-11.14,3.67-15.94,5.14-26,8-36.69,11.29-31.29,41.54.86,4.85,1.67,9.21,2.4,13.16,7.26,39.2,6.73,41.08-19.17,67Z" fill="#ff880056"/><path id="_Caminho_composto_5" data-name="&lt;Caminho composto&gt;" d="M599.35,859.2c12.11-2,17.15-16.49,22-30.49,2.39-6.84,4.86-13.92,8-19,3.72-6.07,2.73-13-2.65-18.5-11.36-11.64-39.68-15.52-62.15-2.49-12,7-20.88,13.18-27.1,19h0a19.58,19.58,0,0,0,14.81,33.85c8-.57,11.46.71,12.81,1.52a55.27,55.27,0,0,1,6.82,5.3c5.85,5,13,11.17,23.09,11.17A27,27,0,0,0,599.35,859.2Zm-47.81-27.6A9.58,9.58,0,0,1,544.27,815c5.58-5.22,14.09-11.15,25.28-17.64,19.18-11.12,42.41-6.95,50,.82,3.16,3.23,1.89,5.29,1.29,6.28-3.67,6-6.32,13.58-8.88,20.92-3.92,11.24-8,22.87-14.23,23.91-7.89,1.32-13.18-3.24-19.31-8.51a61.47,61.47,0,0,0-8.19-6.29c-3.46-2.07-8.12-3.09-14.17-3.09C554.62,831.44,553.12,831.49,551.54,831.6Z" fill="#ff880056"/><path id="_Caminho_10" data-name="&lt;Caminho&gt;" d="M795,861.82a17.19,17.19,0,0,1-10.49-3.23c-8.74-6.46-8.25-20.84,1.49-43.94,7.62-18.08,19.19-37.7,27.56-51,8.5-13.49,10.08-31,11.91-51.17,1.7-18.84,3.63-40.2,11.33-64.14a81.15,81.15,0,0,1,41.36-48.68,85.62,85.62,0,0,1,28.66-8.83l.84,10a77.1,77.1,0,0,0-25.33,8c-17.71,9.05-29.82,23.39-36,42.64-7.36,22.89-9.23,43.66-10.89,62-1.95,21.5-3.62,40.08-13.41,55.6-31,49.14-38.08,76.71-31.56,81.54,2.21,1.63,6,1.68,10.7.12,18-6,42.62-32.49,52.83-66.53,5.27-17.56,9.79-36,14.16-53.88,8.23-33.61,14.73-60.15,23.29-69a28.93,28.93,0,0,1,19-8.65l.11,10a18.66,18.66,0,0,0-11.91,5.61c-6.67,6.88-13.51,34.82-20.75,64.4-4.41,18-9,36.57-14.3,54.37-11.56,38.55-39.16,66.46-59.26,73.14A29.48,29.48,0,0,1,795,861.82Z" fill="#ff880056"/><path id="_Caminho_composto_6" data-name="&lt;Caminho composto&gt;" d="M680.65,172c30.35-18.41,60-19.24,79.58-19.79a147.11,147.11,0,0,0,14.71-.85c1.35-.18,3.29-.39,5.52-.63,19.59-2.09,65.46-7,84.51-32.86,7.71-10.46,10.16-23.11,7.31-37.59-4-20.39-12.47-32.74-25.09-36.72-23-7.25-52.07,16.29-67.35,31-16.78,16.11-33.63,19.79-57,24.88a392,392,0,0,0-40.16,10.43c-25.07,8.21-35.87,23.54-40.51,35a53.26,53.26,0,0,0-4,23.42l0,.22c0,.12,0,.26,0,.42-.1,2.7-.38,9.87,5.63,13.41a13.24,13.24,0,0,0,6.9,1.73C657.65,184,667.29,180.1,680.65,172Zm5.17-52.66A381.13,381.13,0,0,1,725,109.19C749,104,768,99.81,786.76,81.75c23-22,44.42-32.74,57.42-28.64,8.87,2.79,15,12.59,18.28,29.11,2.33,11.78.52,21.51-5.54,29.73-16.44,22.32-59.24,26.9-77.52,28.85-2.31.25-4.31.46-5.81.67-3.48.47-8.19.6-13.64.76-20.66.58-51.87,1.45-84.49,21.22-21,12.76-26.08,10.52-26.58,10.22-.86-.51-.75-3.45-.71-4.42a11.18,11.18,0,0,0-.07-2.25C647.86,163.64,646.73,132.16,685.82,119.35Z" fill="#ff880056"/><path id="_Caminho_11" data-name="&lt;Caminho&gt;" d="M546.56,713.47c-12,0-35.92-2.07-61.4-6.94-26.82-5.14-61.92-14.72-76.82-31.16-6.52-7.2-8.84-15.12-6.88-23.55,3.43-14.75,2-25.41-4.27-31.66-6.76-6.75-19.79-8.68-34.87-5.16-5.72,1.34-11.66,5.25-17.4,9-9.43,6.22-19.18,12.65-30.12,9.6-9.08-2.53-16.81-11-24.31-26.8-5.21-10.94-5.85-22-1.91-32.82,11.36-31.28,59.1-53.16,82.05-63.67,3-1.39,5.63-2.58,7.67-3.57,6.57-3.2,17.78-13.89,29.65-25.21,27.59-26.32,61.93-59.08,85.62-46.31,7.69,4.14,12.06,9.42,13,15.69,1.92,13.11-11.21,26.24-26.42,41.44-6.68,6.69-13.6,13.6-19,20.43-9.82,12.43-12.36,29.13-6.46,42.55,6.58,14.95,22.17,24.06,43.9,25.66,15.76,1.16,29.24-4.76,40.06-17.61,16.55-19.66,21.93-50.7,19.34-61-2.31-9.24-.62-18.11,1.35-28.38,2.41-12.61,5.4-28.31,2.44-51.61-3.84-30.16,18.79-59.49,42-69.37,15.49-6.6,29.53-4,38.53,7.12,14.15,17.52-1.33,31.76-11.57,41.17-4.84,4.45-10.86,10-10.46,13,.09.62.86,2.9,7.17,6.13,12.52,6.4,19.8,13.77,22.26,22.54,3.89,13.85-4.69,27.81-14.62,44-1.34,2.18-2.71,4.41-4.07,6.68-9,15.05-8.57,27.88-4.8,31,2.39,2,7.7-.13,13.55-5.37,12.2-10.92,17-11.69,26.74-12.37,8.06-.57,20.22-1.43,48-11.93,56.3-21.29,48.13-77.49,45.92-88.54-.58-2.88-3.7-7.13-7-11.63-10.66-14.51-28.5-38.79,9.72-67.09,33.07-24.49,58.43-44.42,59.31-59.61.25-4.37-1.72-8.46-6-12.49-3.69-3.46-9.23-4.72-16.46-3.77-25.35,3.37-60,31.41-63,36.29-3.4,5.67-24.75,14.07-37.4,18-16.34,5.12-38.4,9.84-50.73,3.28-7.36-3.91-14.09-12.94-4.36-33.79,12.81-27.45,34.52-45.55,66.37-55.32,28.09-8.62,59.68-9.51,89.62-9.18,58.22.62,108.29-20.51,108.79-20.72l3.94,9.19c-2.12.91-52.53,22.19-112.84,21.52-57.49-.62-121,3.35-146.82,58.74-4.88,10.47-5.19,17.27-.9,20.2,6.14,4.19,21.56,3.2,41.27-2.65,17.61-5.22,32.26-12.41,34.66-14.72,5-7.59,41.69-36.81,69.77-40.73,10.51-1.47,18.91.66,25,6.33,6.51,6.1,9.6,13,9.17,20.37-1.13,19.55-27,40.13-63.34,67.07-30.21,22.37-18.72,38-7.61,53.13,4.16,5.65,7.74,10.53,8.75,15.59,1.13,5.64,4.33,25.72-1.85,47.13-7.14,24.74-24.55,43-50.33,52.73-29.13,11-42.18,11.93-50.81,12.54-7.94.56-10.61.75-20.78,9.85-14.47,13-23.42,8.25-26.59,5.63-9.19-7.59-8.1-26,2.59-43.84,1.38-2.31,2.77-4.56,4.13-6.78,8.7-14.16,16.22-26.39,13.51-36-1.67-5.93-7.29-11.28-17.18-16.33-7.71-3.94-11.81-8.42-12.52-13.69-1.12-8.16,6-14.73,13.59-21.69,12.79-11.76,18-18.31,10.56-27.52-8.18-10.13-20.32-7-26.83-4.21-19.9,8.49-39.09,34.18-36,58.91s0,41.44-2.54,54.75c-1.81,9.48-3.24,17-1.47,24.07,3.5,14-3.1,48.18-21.39,69.91-12.82,15.22-29.57,22.53-48.45,21.15-34.54-2.55-47.6-20.9-52.31-31.62-7.48-17-4.51-37.24,7.77-52.77,5.76-7.29,12.88-14.41,19.77-21.3,12.19-12.18,24.79-24.78,23.59-32.92-.44-3-3-5.74-7.82-8.34-17.3-9.32-50.06,21.93-74,44.74-13,12.39-24.2,23.09-32.18,27-2.14,1-4.8,2.26-7.88,3.67-21.71,10-66.88,30.65-76.81,58-3,8.35-2.53,16.56,1.54,25.11,6,12.6,12,19.82,18,21.47,6.55,1.82,14-3.1,21.94-8.32,6.47-4.26,13.17-8.68,20.62-10.42,8.87-2.06,30.93-5.44,44.22,7.83,8.86,8.85,11.2,22.65,6.94,41-1.19,5.11.3,9.88,4.55,14.57,24.3,26.81,120.56,36.57,135.51,34.62,15.42-2,38.55-15.73,39.25-38.79.89-29.3,24.24-71.89,56.32-86.15,11.84-5.27,26.62-7.65,42.27-10.17,28-4.51,59.67-9.62,87.53-32.1,29.17-23.53,69.11-55.75,71.12-134.12,1.39-54.38,58.86-80.63,61.3-81.72l4.08,9.13c-.54.24-54.15,24.82-55.38,72.85-2.13,83-45.89,118.28-74.84,141.64C753,568,718.45,573.56,690.69,578c-15.64,2.52-29.15,4.7-39.8,9.43-30.17,13.42-49.68,54.08-50.38,77.33-.89,29.18-28.58,45.87-48,48.4A50.69,50.69,0,0,1,546.56,713.47Z" fill="#ff880056"/><path id="_Caminho_12" data-name="&lt;Caminho&gt;" d="M1.26,662.51l-1.65-9.86c1-.18,25.53-4.7,24.51-28.55-.32-7.48-4.77-12.71-8.45-15.77-6.58-5.48-14.92-7.77-19.42-7.15l-1.38-9.9c8.06-1.12,19.24,2.73,27.2,9.37,7.5,6.25,11.66,14.21,12,23C35.23,649.88,13.11,660.54,1.26,662.51Z" fill="#ff880056"/></g><g id="_Grupo_6" data-name="&lt;Grupo&gt;"><path id="_Caminho_13" data-name="&lt;Caminho&gt;" d="M-113,861.82a17.19,17.19,0,0,1-10.49-3.23c-8.74-6.46-8.25-20.84,1.49-43.94,7.62-18.08,19.19-37.7,27.56-51,8.5-13.49,10.08-31,11.91-51.17,1.7-18.84,3.63-40.2,11.33-64.14A81.15,81.15,0,0,1-29.87,599.7a85.62,85.62,0,0,1,28.66-8.83l.84,10a77.1,77.1,0,0,0-25.33,8c-17.71,9.05-29.82,23.39-36,42.64-7.36,22.89-9.23,43.66-10.89,62-2,21.5-3.62,40.08-13.41,55.6-31,49.14-38.08,76.71-31.56,81.54,2.21,1.63,6,1.68,10.7.12,18-6,42.62-32.49,52.83-66.53,5.27-17.56,9.79-36,14.16-53.88,8.23-33.61,14.73-60.15,23.29-69a28.93,28.93,0,0,1,19-8.65l.11,10a18.66,18.66,0,0,0-11.91,5.61c-6.67,6.88-13.51,34.82-20.75,64.4-4.41,18-9,36.57-14.3,54.37-11.56,38.55-39.16,66.46-59.26,73.14A29.48,29.48,0,0,1-113,861.82Z" fill="#ff880056"/><path id="_Caminho_14" data-name="&lt;Caminho&gt;" d="M-361.44,713.47c-12.05,0-35.92-2.07-61.4-6.94-26.82-5.14-61.92-14.72-76.82-31.16-6.52-7.2-8.84-15.12-6.88-23.55,3.43-14.75,2-25.41-4.27-31.66-6.76-6.75-19.79-8.68-34.87-5.16-5.72,1.34-11.66,5.25-17.4,9-9.43,6.22-19.18,12.65-30.12,9.6-9.08-2.53-16.81-11-24.31-26.8-5.21-10.94-5.85-22-1.91-32.82,11.36-31.28,59.1-53.16,82-63.67,3-1.39,5.63-2.58,7.67-3.57,6.57-3.2,17.78-13.89,29.65-25.21,27.59-26.32,61.93-59.08,85.62-46.31,7.69,4.14,12.06,9.42,13,15.69,1.92,13.11-11.21,26.24-26.42,41.44-6.68,6.69-13.6,13.6-19,20.43-9.82,12.43-12.36,29.13-6.46,42.55,6.58,14.95,22.17,24.06,43.9,25.66,15.76,1.16,29.24-4.76,40.06-17.61,16.55-19.66,21.93-50.7,19.34-61-2.31-9.24-.62-18.11,1.35-28.38,2.41-12.61,5.4-28.31,2.44-51.61-3.84-30.16,18.79-59.49,41.95-69.37,15.49-6.6,29.53-4,38.53,7.12,14.15,17.52-1.33,31.76-11.57,41.17-4.84,4.45-10.86,10-10.46,13,.09.62.86,2.9,7.17,6.13,12.52,6.4,19.8,13.77,22.26,22.54,3.89,13.85-4.69,27.81-14.62,44-1.34,2.18-2.71,4.41-4.07,6.68-9,15.05-8.57,27.88-4.8,31,2.39,2,7.7-.13,13.55-5.37,12.2-10.92,17-11.69,26.74-12.37,8.06-.57,20.22-1.43,48-11.93,56.3-21.29,48.13-77.49,45.92-88.54-.58-2.88-3.7-7.13-7-11.63-10.66-14.51-28.5-38.79,9.72-67.09,33.07-24.49,58.43-44.42,59.31-59.61.25-4.37-1.72-8.46-6-12.49-3.69-3.46-9.23-4.72-16.46-3.77-25.35,3.37-60,31.41-63,36.29-3.4,5.67-24.75,14.07-37.4,18-16.34,5.12-38.4,9.84-50.73,3.28-7.36-3.91-14.09-12.94-4.36-33.79,12.81-27.45,34.52-45.55,66.37-55.32,28.09-8.62,59.68-9.51,89.62-9.18C-49.44,211.73.63,190.6,1.13,190.39l3.94,9.19c-2.12.91-52.53,22.19-112.84,21.52-57.49-.62-121,3.35-146.82,58.74-4.88,10.47-5.19,17.27-.9,20.2,6.14,4.19,21.56,3.2,41.27-2.65,17.61-5.22,32.26-12.41,34.66-14.72,5-7.59,41.69-36.81,69.77-40.73,10.51-1.47,18.91.66,25,6.33,6.51,6.1,9.6,13,9.17,20.37-1.13,19.55-27,40.13-63.34,67.07-30.21,22.37-18.72,38-7.61,53.13,4.16,5.65,7.74,10.53,8.75,15.59,1.13,5.64,4.33,25.72-1.85,47.13-7.14,24.74-24.55,43-50.33,52.73-29.13,11-42.18,11.93-50.81,12.54-7.94.56-10.61.75-20.78,9.85-14.47,13-23.42,8.25-26.59,5.63-9.19-7.59-8.1-26,2.59-43.84,1.38-2.31,2.77-4.56,4.13-6.78,8.7-14.16,16.22-26.39,13.51-36-1.67-5.93-7.29-11.28-17.18-16.33-7.71-3.94-11.81-8.42-12.52-13.69-1.12-8.16,6-14.73,13.59-21.69,12.79-11.76,18-18.31,10.56-27.52-8.18-10.13-20.32-7-26.83-4.21-19.9,8.49-39.09,34.18-35.95,58.91s0,41.44-2.54,54.75c-1.81,9.48-3.24,17-1.47,24.07,3.5,14-3.1,48.18-21.39,69.91-12.82,15.22-29.57,22.53-48.45,21.15-34.54-2.55-47.6-20.9-52.31-31.62-7.48-17-4.51-37.24,7.77-52.77,5.76-7.29,12.88-14.41,19.77-21.3,12.19-12.18,24.79-24.78,23.59-32.92-.44-3-3-5.74-7.82-8.34-17.3-9.32-50.06,21.93-74,44.74-13,12.39-24.2,23.09-32.18,27-2.14,1-4.8,2.26-7.88,3.67-21.71,10-66.88,30.65-76.81,58-3,8.35-2.53,16.56,1.54,25.11,6,12.6,12,19.82,18,21.47,6.55,1.82,14-3.1,21.94-8.32,6.47-4.26,13.17-8.68,20.62-10.42,8.87-2.06,30.93-5.44,44.22,7.83,8.86,8.85,11.2,22.65,6.94,41-1.19,5.11.3,9.88,4.55,14.57,24.3,26.81,120.56,36.57,135.51,34.62,15.42-2,38.55-15.73,39.25-38.79.89-29.3,24.24-71.89,56.32-86.15,11.84-5.27,26.62-7.65,42.27-10.17,28-4.51,59.67-9.62,87.53-32.1C-102.2,512.54-62.26,480.32-60.25,402c1.39-54.38,58.86-80.63,61.3-81.72l4.08,9.13c-.54.24-54.15,24.82-55.38,72.85-2.13,83-45.89,118.28-74.84,141.64C-155,568-189.55,573.56-217.31,578c-15.64,2.52-29.15,4.7-39.8,9.43-30.17,13.42-49.68,54.08-50.38,77.33-.89,29.18-28.58,45.87-47.95,48.4A50.69,50.69,0,0,1-361.44,713.47Z" fill="#ff880056"/></g><g id="_Grupo_7" data-name="&lt;Grupo&gt;"><path id="_Caminho_15" data-name="&lt;Caminho&gt;" d="M87.33,10.22,79.76,3.68C90.9-9.22,65-35.21,46.16-54.19,39.41-61,33.59-66.82,29.62-71.79c-16.79-21-16.14-37.14-15.15-61.58l.07-1.71c.58-14.33,7.52-38.19,21.72-59.19,12.46-18.41,35-41.08,71.76-44.52,27.43-2.57,46.09,3.4,55.48,17.75,10.2,15.58,7.77,39.49-6.66,65.61-15.53,28.08-37.24,78.62-8.28,101.59,15.06,12,35.78,16.49,54.07,11.85,22-5.59,40.08-23.53,52.16-51.86,13.16-30.85,16.51-51.43,10.86-66.71-5-13.55-16.47-22.42-34.75-35.42-46.87-33.34-20.13-71.56-5.77-92.09,3.5-5,7.11-10.17,7.6-12.5A190.18,190.18,0,0,0,235.35-321c2.81-29.93,6.31-67.19,51.45-91,4.41-2.33,7.95-4,11.08-5.53,15.61-7.5,16.22-7.79,44.19-54.67,30.72-51.5,61.48-48.75,88.61-46.32,4.44.4,8.64.77,12.8.91l7,.27c22.4,1,24.75,1.05,47-25.46,13.08-15.6,8.44-31.3,3.07-49.49-4.3-14.56-8.75-29.62-4-45.65,5.83-19.84,13.56-23.29,24.69-26.3,7.05-1.9,15.05-4.06,25.35-15.6s9.37-15.55,7.13-25.29c-2.58-11.24-6.48-28.24,4.82-64.79,21.09-68.3,84.13-134.94,86.8-137.75l7.24,6.9c-.64.67-64.09,67.78-84.49,133.8-10.5,34-7.1,48.79-4.62,59.6,2.76,12,3.68,19.52-9.42,34.2-12.28,13.74-22.64,16.54-30.2,18.59-8.4,2.26-13,3.51-17.71,19.46-3.88,13.2,0,26.22,4,40,5.67,19.19,11.53,39-5,58.74-24.71,29.45-29.63,30.11-55.07,29-2.13-.09-4.42-.19-6.9-.27-4.44-.15-9-.56-13.35-.95-26.55-2.37-51.63-4.62-79.13,41.48-28.41,47.62-30.22,49.81-48.46,58.56-3,1.46-6.48,3.12-10.73,5.36C251.11-381.85,248-349,245.3-320a196.88,196.88,0,0,1-2.78,21.52c-.91,4.34-4.38,9.31-9.19,16.18-18.67,26.68-32.45,52.73,3.37,78.21,16.4,11.67,31.89,22.69,38.33,40.1,6.61,17.86,3.2,40.72-11,74.11-16.87,39.55-41.34,53.17-58.9,57.62A72.83,72.83,0,0,1,142.35-46c-25.75-20.42-23.71-61,5.73-114.27,12.4-22.43,15-43.1,7-55.29C148-226.41,132.07-231,109-228.83c-32.85,3.08-53.16,23.54-64.42,40.17-13,19.26-19.51,41.48-20,54L24.47-133c-1,23.77-1.5,36.86,13,54.94C41.06-73.49,47-67.54,53.25-61.25,63.91-50.52,76-38.37,83.91-26.45,94-11.21,95.18,1.13,87.33,10.22Z" fill="#ff880056"/><path id="_Caminho_16" data-name="&lt;Caminho&gt;" d="M652.38,8,645.3,1l1.44-1.44c11.77-11.8,17.68-17.73,19.55-24.3s.22-15.78-3.13-33.86c-.74-4-1.55-8.35-2.42-13.22-7-39,12-44.79,38.2-52.85,4.94-1.53,10.06-3.1,15.57-5,14.41-5,23.52-22.08,22.17-41.44-1.16-16.66-11-36.19-35.15-41-34.22-6.85-51.12,9.78-74.51,32.81-8.67,8.53-18.5,18.21-30.14,27.39-26,20.47-40.08,12.34-55,3.74-11.41-6.56-24.35-14-46.61-11-41.84,5.58-48.59,26.67-57.14,53.37-1.65,5.16-3.36,10.5-5.39,15.91C421.92-61.28,403.48-58.28,384-55.11c-5.36.87-10.89,1.77-16.62,3.21-9.73,2.44-35,31.58-48.62,49.37l-7.94-6.08c6.24-8.15,38.19-49,54.12-53,6.14-1.55,11.89-2.48,17.46-3.38,19.41-3.16,32.24-5.24,41-28.54,1.94-5.18,3.61-10.4,5.23-15.45,8.86-27.68,17.23-53.82,65.34-60.23,25.63-3.42,40.76,5.28,52.92,12.27,14.48,8.33,23.22,13.35,43.86-2.92,11.21-8.84,20.42-17.9,29.32-26.67,23.64-23.27,44.06-43.38,83.48-35.49,29.67,5.94,41.75,29.79,43.17,50.13,1.66,23.85-10.2,45.06-28.84,51.58-5.7,2-11.14,3.67-15.94,5.14-26,8-36.69,11.29-31.29,41.54.86,4.85,1.67,9.21,2.4,13.16,7.26,39.2,6.73,41.08-19.17,67Z" fill="#ff880056"/></g></g></pattern></defs><title>padrão</title><rect id="_Retângulo_" data-name="&lt;Retângulo&gt;" width="900" height="900" fill="url(#New_Pattern)"/></svg>